<?xml version="1.0" encoding="UTF-8" standalone="no"?>
<!DOCTYPE svg PUBLIC "-//W3C//DTD SVG 1.1//EN"
 "http://www.w3.org/Graphics/SVG/1.1/DTD/svg11.dtd">
<!-- Generated by graphviz version 3.0.0 (20220226.1711)
 -->
<!-- Title: dependencies Pages: 1 -->
<svg width="2670pt" height="247pt"
 viewBox="0.00 0.00 2670.00 246.80" xmlns="http://www.w3.org/2000/svg" xmlns:xlink="http://www.w3.org/1999/xlink">
<g id="graph0" class="graph" transform="scale(1 1) rotate(0) translate(4 242.8)">
<title>dependencies</title>
<polygon fill="white" stroke="transparent" points="-4,4 -4,-242.8 2666,-242.8 2666,4 -4,4"/>
<text text-anchor="middle" x="1331" y="-8.2" font-family="sans-serif" font-size="14.00">dependencies</text>
<g id="clust1" class="cluster">
<title>cluster_AppModule</title>
<polygon fill="none" stroke="black" stroke-dasharray="1,5" points="8,-32.8 8,-230.8 2654,-230.8 2654,-32.8 8,-32.8"/>
</g>
<g id="clust2" class="cluster">
<title>cluster_AppModule_declarations</title>
<polygon fill="none" stroke="black" points="168,-40.8 168,-92.8 2646,-92.8 2646,-40.8 168,-40.8"/>
</g>
<g id="clust19" class="cluster">
<title>cluster_AppModule_imports</title>
<polygon fill="none" stroke="black" points="16,-40.8 16,-92.8 160,-92.8 160,-40.8 16,-40.8"/>
</g>
<g id="clust21" class="cluster">
<title>cluster_AppModule_bootstrap</title>
<polygon fill="none" stroke="black" points="1258,-170.8 1258,-222.8 1382,-222.8 1382,-170.8 1258,-170.8"/>
</g>
<!-- AlertaComponent -->
<g id="node1" class="node">
<title>AlertaComponent</title>
<polygon fill="#ffffb3" stroke="black" points="2638.31,-84.8 2521.69,-84.8 2521.69,-48.8 2638.31,-48.8 2638.31,-84.8"/>
<text text-anchor="middle" x="2580" y="-62.6" font-family="Times,serif" font-size="14.00">AlertaComponent</text>
</g>
<!-- AppModule -->
<g id="node17" class="node">
<title>AppModule</title>
<polygon fill="#8dd3c7" stroke="black" points="1361.66,-149.8 1358.66,-153.8 1337.66,-153.8 1334.66,-149.8 1278.34,-149.8 1278.34,-113.8 1361.66,-113.8 1361.66,-149.8"/>
<text text-anchor="middle" x="1320" y="-127.6" font-family="Times,serif" font-size="14.00">AppModule</text>
</g>
<!-- AlertaComponent&#45;&gt;AppModule -->
<g id="edge1" class="edge">
<title>AlertaComponent&#45;&gt;AppModule</title>
<path fill="none" stroke="black" d="M2580,-85.12C2580,-108.46 2580,-145.8 2580,-145.8 2580,-145.8 1371.92,-145.8 1371.92,-145.8"/>
<polygon fill="black" stroke="black" points="1371.92,-142.3 1361.92,-145.8 1371.92,-149.3 1371.92,-142.3"/>
</g>
<!-- AppComponent -->
<g id="node2" class="node">
<title>AppComponent</title>
<polygon fill="#ffffb3" stroke="black" points="2503.94,-84.8 2398.06,-84.8 2398.06,-48.8 2503.94,-48.8 2503.94,-84.8"/>
<text text-anchor="middle" x="2451" y="-62.6" font-family="Times,serif" font-size="14.00">AppComponent</text>
</g>
<!-- AppComponent&#45;&gt;AppModule -->
<g id="edge2" class="edge">
<title>AppComponent&#45;&gt;AppModule</title>
<path fill="none" stroke="black" d="M2451,-84.96C2451,-107.15 2451,-141.8 2451,-141.8 2451,-141.8 1371.93,-141.8 1371.93,-141.8"/>
<polygon fill="black" stroke="black" points="1371.93,-138.3 1361.93,-141.8 1371.93,-145.3 1371.93,-138.3"/>
</g>
<!-- CadastroLoginComponent -->
<g id="node3" class="node">
<title>CadastroLoginComponent</title>
<polygon fill="#ffffb3" stroke="black" points="2380.04,-84.8 2215.96,-84.8 2215.96,-48.8 2380.04,-48.8 2380.04,-84.8"/>
<text text-anchor="middle" x="2298" y="-62.6" font-family="Times,serif" font-size="14.00">CadastroLoginComponent</text>
</g>
<!-- CadastroLoginComponent&#45;&gt;AppModule -->
<g id="edge3" class="edge">
<title>CadastroLoginComponent&#45;&gt;AppModule</title>
<path fill="none" stroke="black" d="M2298,-85.08C2298,-106.12 2298,-137.8 2298,-137.8 2298,-137.8 1371.71,-137.8 1371.71,-137.8"/>
<polygon fill="black" stroke="black" points="1371.71,-134.3 1361.71,-137.8 1371.71,-141.3 1371.71,-134.3"/>
</g>
<!-- HomeComponent -->
<g id="node4" class="node">
<title>HomeComponent</title>
<polygon fill="#ffffb3" stroke="black" points="2197.55,-84.8 2082.45,-84.8 2082.45,-48.8 2197.55,-48.8 2197.55,-84.8"/>
<text text-anchor="middle" x="2140" y="-62.6" font-family="Times,serif" font-size="14.00">HomeComponent</text>
</g>
<!-- HomeComponent&#45;&gt;AppModule -->
<g id="edge4" class="edge">
<title>HomeComponent&#45;&gt;AppModule</title>
<path fill="none" stroke="black" d="M2140,-85.11C2140,-104.95 2140,-133.8 2140,-133.8 2140,-133.8 1371.79,-133.8 1371.79,-133.8"/>
<polygon fill="black" stroke="black" points="1371.79,-130.3 1361.79,-133.8 1371.79,-137.3 1371.79,-130.3"/>
</g>
<!-- MenuComponent -->
<g id="node5" class="node">
<title>MenuComponent</title>
<polygon fill="#ffffb3" stroke="black" points="2063.99,-84.8 1950.01,-84.8 1950.01,-48.8 2063.99,-48.8 2063.99,-84.8"/>
<text text-anchor="middle" x="2007" y="-62.6" font-family="Times,serif" font-size="14.00">MenuComponent</text>
</g>
<!-- MenuComponent&#45;&gt;AppModule -->
<g id="edge5" class="edge">
<title>MenuComponent&#45;&gt;AppModule</title>
<path fill="none" stroke="black" d="M2007,-85.02C2007,-103.63 2007,-129.8 2007,-129.8 2007,-129.8 1371.68,-129.8 1371.68,-129.8"/>
<polygon fill="black" stroke="black" points="1371.68,-126.3 1361.68,-129.8 1371.68,-133.3 1371.68,-126.3"/>
</g>
<!-- MinhasPublicacoesComponent -->
<g id="node6" class="node">
<title>MinhasPublicacoesComponent</title>
<polygon fill="#ffffb3" stroke="black" points="1932.2,-84.8 1741.8,-84.8 1741.8,-48.8 1932.2,-48.8 1932.2,-84.8"/>
<text text-anchor="middle" x="1837" y="-62.6" font-family="Times,serif" font-size="14.00">MinhasPublicacoesComponent</text>
</g>
<!-- MinhasPublicacoesComponent&#45;&gt;AppModule -->
<g id="edge6" class="edge">
<title>MinhasPublicacoesComponent&#45;&gt;AppModule</title>
<path fill="none" stroke="black" d="M1837,-84.82C1837,-102.17 1837,-125.8 1837,-125.8 1837,-125.8 1371.87,-125.8 1371.87,-125.8"/>
<polygon fill="black" stroke="black" points="1371.87,-122.3 1361.87,-125.8 1371.87,-129.3 1371.87,-122.3"/>
</g>
<!-- NoticiasComponent -->
<g id="node7" class="node">
<title>NoticiasComponent</title>
<polygon fill="#ffffb3" stroke="black" points="1723.99,-84.8 1596.01,-84.8 1596.01,-48.8 1723.99,-48.8 1723.99,-84.8"/>
<text text-anchor="middle" x="1660" y="-62.6" font-family="Times,serif" font-size="14.00">NoticiasComponent</text>
</g>
<!-- NoticiasComponent&#45;&gt;AppModule -->
<g id="edge7" class="edge">
<title>NoticiasComponent&#45;&gt;AppModule</title>
<path fill="none" stroke="black" d="M1660,-84.81C1660,-100.85 1660,-121.8 1660,-121.8 1660,-121.8 1371.69,-121.8 1371.69,-121.8"/>
<polygon fill="black" stroke="black" points="1371.69,-118.3 1361.69,-121.8 1371.69,-125.3 1371.69,-118.3"/>
</g>
<!-- NoticiasDeleteComponent -->
<g id="node8" class="node">
<title>NoticiasDeleteComponent</title>
<polygon fill="#ffffb3" stroke="black" points="1578.02,-84.8 1413.98,-84.8 1413.98,-48.8 1578.02,-48.8 1578.02,-84.8"/>
<text text-anchor="middle" x="1496" y="-62.6" font-family="Times,serif" font-size="14.00">NoticiasDeleteComponent</text>
</g>
<!-- NoticiasDeleteComponent&#45;&gt;AppModule -->
<g id="edge8" class="edge">
<title>NoticiasDeleteComponent&#45;&gt;AppModule</title>
<path fill="none" stroke="black" d="M1496,-84.92C1496,-99.58 1496,-117.8 1496,-117.8 1496,-117.8 1371.71,-117.8 1371.71,-117.8"/>
<polygon fill="black" stroke="black" points="1371.71,-114.3 1361.71,-117.8 1371.71,-121.3 1371.71,-114.3"/>
</g>
<!-- NoticiasEditComponent -->
<g id="node9" class="node">
<title>NoticiasEditComponent</title>
<polygon fill="#ffffb3" stroke="black" points="1395.82,-84.8 1244.18,-84.8 1244.18,-48.8 1395.82,-48.8 1395.82,-84.8"/>
<text text-anchor="middle" x="1320" y="-62.6" font-family="Times,serif" font-size="14.00">NoticiasEditComponent</text>
</g>
<!-- NoticiasEditComponent&#45;&gt;AppModule -->
<g id="edge9" class="edge">
<title>NoticiasEditComponent&#45;&gt;AppModule</title>
<path fill="none" stroke="black" d="M1320,-84.91C1320,-84.91 1320,-103.79 1320,-103.79"/>
<polygon fill="black" stroke="black" points="1316.5,-103.79 1320,-113.79 1323.5,-103.79 1316.5,-103.79"/>
</g>
<!-- RodapeComponent -->
<g id="node10" class="node">
<title>RodapeComponent</title>
<polygon fill="#ffffb3" stroke="black" points="1226.1,-84.8 1101.9,-84.8 1101.9,-48.8 1226.1,-48.8 1226.1,-84.8"/>
<text text-anchor="middle" x="1164" y="-62.6" font-family="Times,serif" font-size="14.00">RodapeComponent</text>
</g>
<!-- RodapeComponent&#45;&gt;AppModule -->
<g id="edge10" class="edge">
<title>RodapeComponent&#45;&gt;AppModule</title>
<path fill="none" stroke="black" d="M1164,-84.92C1164,-99.58 1164,-117.8 1164,-117.8 1164,-117.8 1268.19,-117.8 1268.19,-117.8"/>
<polygon fill="black" stroke="black" points="1268.19,-121.3 1278.19,-117.8 1268.19,-114.3 1268.19,-121.3"/>
</g>
<!-- SobreComponent -->
<g id="node11" class="node">
<title>SobreComponent</title>
<polygon fill="#ffffb3" stroke="black" points="1083.99,-84.8 970.01,-84.8 970.01,-48.8 1083.99,-48.8 1083.99,-84.8"/>
<text text-anchor="middle" x="1027" y="-62.6" font-family="Times,serif" font-size="14.00">SobreComponent</text>
</g>
<!-- SobreComponent&#45;&gt;AppModule -->
<g id="edge11" class="edge">
<title>SobreComponent&#45;&gt;AppModule</title>
<path fill="none" stroke="black" d="M1027,-84.81C1027,-100.85 1027,-121.8 1027,-121.8 1027,-121.8 1268.33,-121.8 1268.33,-121.8"/>
<polygon fill="black" stroke="black" points="1268.33,-125.3 1278.33,-121.8 1268.33,-118.3 1268.33,-125.3"/>
</g>
<!-- TemaDeleteComponent -->
<g id="node12" class="node">
<title>TemaDeleteComponent</title>
<polygon fill="#ffffb3" stroke="black" points="951.73,-84.8 802.27,-84.8 802.27,-48.8 951.73,-48.8 951.73,-84.8"/>
<text text-anchor="middle" x="877" y="-62.6" font-family="Times,serif" font-size="14.00">TemaDeleteComponent</text>
</g>
<!-- TemaDeleteComponent&#45;&gt;AppModule -->
<g id="edge12" class="edge">
<title>TemaDeleteComponent&#45;&gt;AppModule</title>
<path fill="none" stroke="black" d="M877,-84.82C877,-102.17 877,-125.8 877,-125.8 877,-125.8 1268.32,-125.8 1268.32,-125.8"/>
<polygon fill="black" stroke="black" points="1268.32,-129.3 1278.32,-125.8 1268.32,-122.3 1268.32,-129.3"/>
</g>
<!-- TemaEditComponent -->
<g id="node13" class="node">
<title>TemaEditComponent</title>
<polygon fill="#ffffb3" stroke="black" points="784.03,-84.8 647.97,-84.8 647.97,-48.8 784.03,-48.8 784.03,-84.8"/>
<text text-anchor="middle" x="716" y="-62.6" font-family="Times,serif" font-size="14.00">TemaEditComponent</text>
</g>
<!-- TemaEditComponent&#45;&gt;AppModule -->
<g id="edge13" class="edge">
<title>TemaEditComponent&#45;&gt;AppModule</title>
<path fill="none" stroke="black" d="M716,-85.02C716,-103.63 716,-129.8 716,-129.8 716,-129.8 1268.01,-129.8 1268.01,-129.8"/>
<polygon fill="black" stroke="black" points="1268.01,-133.3 1278.01,-129.8 1268.01,-126.3 1268.01,-133.3"/>
</g>
<!-- TemasComponent -->
<g id="node14" class="node">
<title>TemasComponent</title>
<polygon fill="#ffffb3" stroke="black" points="629.15,-84.8 510.85,-84.8 510.85,-48.8 629.15,-48.8 629.15,-84.8"/>
<text text-anchor="middle" x="570" y="-62.6" font-family="Times,serif" font-size="14.00">TemasComponent</text>
</g>
<!-- TemasComponent&#45;&gt;AppModule -->
<g id="edge14" class="edge">
<title>TemasComponent&#45;&gt;AppModule</title>
<path fill="none" stroke="black" d="M570,-85.11C570,-104.95 570,-133.8 570,-133.8 570,-133.8 1268.07,-133.8 1268.07,-133.8"/>
<polygon fill="black" stroke="black" points="1268.07,-137.3 1278.07,-133.8 1268.07,-130.3 1268.07,-137.3"/>
</g>
<!-- UsuariosEditComponent -->
<g id="node15" class="node">
<title>UsuariosEditComponent</title>
<polygon fill="#ffffb3" stroke="black" points="492.44,-84.8 337.56,-84.8 337.56,-48.8 492.44,-48.8 492.44,-84.8"/>
<text text-anchor="middle" x="415" y="-62.6" font-family="Times,serif" font-size="14.00">UsuariosEditComponent</text>
</g>
<!-- UsuariosEditComponent&#45;&gt;AppModule -->
<g id="edge15" class="edge">
<title>UsuariosEditComponent&#45;&gt;AppModule</title>
<path fill="none" stroke="black" d="M415,-85.08C415,-106.12 415,-137.8 415,-137.8 415,-137.8 1268.17,-137.8 1268.17,-137.8"/>
<polygon fill="black" stroke="black" points="1268.17,-141.3 1278.17,-137.8 1268.16,-134.3 1268.17,-141.3"/>
</g>
<!-- VerNoticiaComponent -->
<g id="node16" class="node">
<title>VerNoticiaComponent</title>
<polygon fill="#ffffb3" stroke="black" points="319.53,-84.8 176.47,-84.8 176.47,-48.8 319.53,-48.8 319.53,-84.8"/>
<text text-anchor="middle" x="248" y="-62.6" font-family="Times,serif" font-size="14.00">VerNoticiaComponent</text>
</g>
<!-- VerNoticiaComponent&#45;&gt;AppModule -->
<g id="edge16" class="edge">
<title>VerNoticiaComponent&#45;&gt;AppModule</title>
<path fill="none" stroke="black" d="M248,-84.96C248,-107.15 248,-141.8 248,-141.8 248,-141.8 1268.31,-141.8 1268.31,-141.8"/>
<polygon fill="black" stroke="black" points="1268.31,-145.3 1278.31,-141.8 1268.31,-138.3 1268.31,-145.3"/>
</g>
<!-- AppComponent  -->
<g id="node19" class="node">
<title>AppComponent </title>
<polygon fill="#80b1d3" stroke="black" points="1374.44,-214.8 1265.56,-214.8 1265.56,-178.8 1374.44,-178.8 1374.44,-214.8"/>
<text text-anchor="middle" x="1320" y="-192.6" font-family="Times,serif" font-size="14.00">AppComponent </text>
</g>
<!-- AppModule&#45;&gt;AppComponent  -->
<g id="edge18" class="edge">
<title>AppModule&#45;&gt;AppComponent </title>
<path fill="none" stroke="black" stroke-dasharray="1,5" d="M1320,-149.91C1320,-149.91 1320,-168.79 1320,-168.79"/>
<polygon fill="black" stroke="black" points="1316.5,-168.79 1320,-178.79 1323.5,-168.79 1316.5,-168.79"/>
</g>
<!-- AppRoutingModule -->
<g id="node18" class="node">
<title>AppRoutingModule</title>
<polygon fill="#8dd3c7" stroke="black" points="152.28,-84.8 149.28,-88.8 128.28,-88.8 125.28,-84.8 23.72,-84.8 23.72,-48.8 152.28,-48.8 152.28,-84.8"/>
<text text-anchor="middle" x="88" y="-62.6" font-family="Times,serif" font-size="14.00">AppRoutingModule</text>
</g>
<!-- AppRoutingModule&#45;&gt;AppModule -->
<g id="edge17" class="edge">
<title>AppRoutingModule&#45;&gt;AppModule</title>
<path fill="none" stroke="black" d="M88,-85.12C88,-108.46 88,-145.8 88,-145.8 88,-145.8 1268.3,-145.8 1268.3,-145.8"/>
<polygon fill="black" stroke="black" points="1268.3,-149.3 1278.3,-145.8 1268.3,-142.3 1268.3,-149.3"/>
</g>
</g>
</svg>
